<svg xmlns="http://www.w3.org/2000/svg" xmlns:xlink="http://www.w3.org/1999/xlink" width="18" height="18" viewBox="0 0 18 18"><defs><style>.a,.c{fill:#222;}.a{stroke:#707070;}.b{clip-path:url(#a);}</style><clipPath id="a"><rect class="a" width="18" height="18"/></clipPath></defs><g class="b"><g transform="translate(0.641 0)"><g transform="translate(2.155)"><path class="c" d="M4.181,2.96A1.482,1.482,0,1,0,2.8,1.578,1.482,1.482,0,0,0,4.181,2.96Z" transform="translate(-2.796 0)"/></g><g transform="translate(0 3.435)"><path class="c" d="M6.2,3.435H5.479l-1.2,2.2-1.2-2.2H2.359A1.709,1.709,0,0,0,.641,5.118v5.23a.745.745,0,0,0,.65.729.715.715,0,0,0,.779-.712V5.122a.3.3,0,0,1,.3-.257V17.123A.876.876,0,0,0,3.157,18a.858.858,0,0,0,.936-.854V10.286h.355v6.837a.863.863,0,1,0,1.727.019V4.865a.311.311,0,0,1,.311.259v5.233a.745.745,0,0,0,.65.729.715.715,0,0,0,.779-.712V5.118A1.709,1.709,0,0,0,6.2,3.435Z" transform="translate(-0.641 -3.435)"/></g><g transform="translate(2.895 3.123)"><path class="c" d="M4.877,3.133,4.321,3.4a.1.1,0,0,1-.086,0l-.556-.265a.1.1,0,0,0-.142.09v.55a.1.1,0,0,0,.142.09L4.235,3.6a.1.1,0,0,1,.086,0l.556.265a.1.1,0,0,0,.142-.09v-.55A.1.1,0,0,0,4.877,3.133Z" transform="translate(-3.536 -3.123)"/></g><g transform="translate(10.74 0.385)"><path class="c" d="M12.83,3.285a1.45,1.45,0,1,0-1.45-1.45A1.45,1.45,0,0,0,12.83,3.285Z" transform="translate(-11.381 -0.385)"/></g><g transform="translate(7.661 3.747)"><path class="c" d="M17.316,9.79c-.009-.025-.729-1.994-1.277-3.538-.445-1.253-.724-2.5-1.989-2.5H11.618c-1.256,0-1.534,1.2-1.981,2.46C9.087,7.758,8.354,9.765,8.344,9.79a.7.7,0,0,0,1.314.48l1.39-3.857-.994,5.209a.389.389,0,0,0,.382.463h.534v5.074a.839.839,0,0,0,1.679,0V12.086h.362v5.074a.839.839,0,0,0,1.679,0V12.086h.534a.389.389,0,0,0,.382-.463l-.994-5.209L16,10.271a.7.7,0,1,0,1.314-.48Z" transform="translate(-8.302 -3.747)"/></g></g></g></svg>