<svg xmlns="http://www.w3.org/2000/svg" xmlns:xlink="http://www.w3.org/1999/xlink" width="32" height="32" viewBox="0 0 32 32"><defs><style>.a{fill:#afafaf;stroke:#707070;}.b{clip-path:url(#a);}.c{fill:#ff9800;}.d{fill:#ffc107;}.e{fill:#ffb300;}</style><clipPath id="a"><rect class="a" width="32" height="32" transform="translate(-0.279)"/></clipPath></defs><g class="b" transform="translate(0.279)"><g transform="translate(0.301 2.59)"><path class="c" d="M11.825,31.847A5.894,5.894,0,0,1,5.938,25.96a5.571,5.571,0,0,1,.277-1.775,1.308,1.308,0,0,1,2.48.829,3.029,3.029,0,0,0-.141.946A3.267,3.267,0,0,0,15,26.723a1.308,1.308,0,0,1,2.547.6,5.846,5.846,0,0,1-5.721,4.529Z" transform="translate(-1.031 -6.336)"/><path class="d" d="M30.417,28.816a1.012,1.012,0,0,1-.272-.038L.709,20.274A.982.982,0,0,1,0,19.331V13.443A.982.982,0,0,1,.709,12.5L30.145,4A.981.981,0,0,1,31.4,4.94V27.834a.979.979,0,0,1-.981.981Z" transform="translate(0 -2.977)"/><g transform="translate(0 0)"><path class="e" d="M36.142,29.59a1.309,1.309,0,0,1-1.308-1.308V4.079a1.308,1.308,0,1,1,2.617,0v24.2A1.309,1.309,0,0,1,36.142,29.59Z" transform="translate(-6.051 -2.771)"/><path class="e" d="M1.308,23.391A1.309,1.309,0,0,1,0,22.083v-8.5a1.308,1.308,0,0,1,2.617,0v8.5A1.309,1.309,0,0,1,1.308,23.391Z" transform="translate(0 -4.421)"/></g></g></g></svg>