<svg xmlns="http://www.w3.org/2000/svg" xmlns:xlink="http://www.w3.org/1999/xlink" width="18" height="18" viewBox="0 0 18 18"><defs><style>.a,.c{fill:#222;}.a{stroke:#707070;}.b{clip-path:url(#a);}</style><clipPath id="a"><rect class="a" width="18" height="18"/></clipPath></defs><g class="b"><g transform="translate(1.632)"><path class="c" d="M9,4.909A1.637,1.637,0,0,0,10.4,2.43L9,0l-1.4,2.43A1.637,1.637,0,0,0,9,4.909Z" transform="translate(-1.632)"/><path class="c" d="M13.905,7.364H9.814V5.727H8.178V7.364H4.087A2.456,2.456,0,0,0,1.632,9.818v1.26a1.6,1.6,0,0,0,2.737,1.133L6.12,10.465l1.747,1.743a1.641,1.641,0,0,0,2.266,0l1.751-1.743,1.747,1.743a1.6,1.6,0,0,0,2.737-1.133V9.818A2.469,2.469,0,0,0,13.905,7.364Z" transform="translate(-1.632)"/><path class="c" d="M12.755,13.079h0l-.88-.88-.884.88a2.9,2.9,0,0,1-4,0l-.88-.88-.884.88a2.774,2.774,0,0,1-1.992.83,2.825,2.825,0,0,1-1.6-.5v3.776A.821.821,0,0,0,2.45,18H15.541a.821.821,0,0,0,.818-.818V13.406a2.817,2.817,0,0,1-3.6-.327Z" transform="translate(-1.632)"/></g></g></svg>