<svg xmlns="http://www.w3.org/2000/svg" xmlns:xlink="http://www.w3.org/1999/xlink" width="21" height="21" viewBox="0 0 21 21"><defs><style>.a,.c{fill:#0083f5;}.a{stroke:#707070;}.b{clip-path:url(#a);}</style><clipPath id="a"><rect class="a" width="21" height="21" transform="translate(0.082)"/></clipPath></defs><g class="b" transform="translate(-0.082)"><g transform="translate(0 2.502)"><path class="c" d="M19.154,2.5H1.846A1.849,1.849,0,0,0,0,4.348v12.3A1.849,1.849,0,0,0,1.846,18.5H19.154A1.849,1.849,0,0,0,21,16.652V4.348A1.849,1.849,0,0,0,19.154,2.5ZM18.9,3.732l-8.36,8.36L2.107,3.732ZM1.23,16.4V4.6l5.926,5.875Zm.87.87,5.93-5.93,2.078,2.06a.615.615,0,0,0,.868,0L13,11.37l5.9,5.9ZM19.77,16.4l-5.9-5.9,5.9-5.9Z" transform="translate(0 -2.502)"/></g></g></svg>