<svg xmlns="http://www.w3.org/2000/svg" xmlns:xlink="http://www.w3.org/1999/xlink" width="15" height="15" viewBox="0 0 15 15"><defs><style>.a,.c{fill:#fff;}.a{stroke:#707070;}.b{clip-path:url(#a);}</style><clipPath id="a"><rect class="a" width="15" height="15"/></clipPath></defs><g class="b"><g transform="translate(0.95 0.048)"><g transform="translate(2.62)"><path class="c" d="M8.42,0a3.93,3.93,0,1,0,3.93,3.93A3.934,3.934,0,0,0,8.42,0Zm0,6.986A3.056,3.056,0,1,1,11.476,3.93,3.06,3.06,0,0,1,8.42,6.986Z" transform="translate(-4.49 0)"/></g><g transform="translate(0 8.733)"><path class="c" d="M12.589,12.827a5.6,5.6,0,0,0-4.016-1.694H6.827a5.6,5.6,0,0,0-4.016,1.694,5.727,5.727,0,0,0-1.66,4.04.437.437,0,0,0,.437.437H13.813a.437.437,0,0,0,.437-.437A5.727,5.727,0,0,0,12.589,12.827Zm-10.546,3.6a4.833,4.833,0,0,1,4.784-4.425H8.573a4.833,4.833,0,0,1,4.784,4.425Z" transform="translate(-1.15 -11.133)"/></g></g></g></svg>