<svg xmlns="http://www.w3.org/2000/svg" xmlns:xlink="http://www.w3.org/1999/xlink" width="15" height="15" viewBox="0 0 15 15"><defs><style>.a,.c{fill:#222;}.a{stroke:#707070;}.b{clip-path:url(#a);}</style><clipPath id="a"><rect class="a" width="15" height="15" transform="translate(18.696 110.696)"/></clipPath></defs><g class="b" transform="translate(-18.696 -110.696)"><path class="c" d="M8.883,4.247A1.687,1.687,0,1,0,7.2,5.934,1.688,1.688,0,0,0,8.883,4.247Zm-2.249,0A.562.562,0,1,1,7.2,4.81.563.563,0,0,1,6.634,4.247Zm7.7,9.33L12.121,9.155a.562.562,0,0,0-.5-.311H10a9.211,9.211,0,0,0,1.447-4.6,4.247,4.247,0,1,0-8.495,0A9.212,9.212,0,0,0,4.4,8.845H2.774a.562.562,0,0,0-.5.311L.06,13.578a.562.562,0,0,0,.5.814H13.83a.562.562,0,0,0,.5-.814ZM7.2,1.124a3.127,3.127,0,0,1,3.123,3.123c0,2.707-2.2,5.494-3.124,6.541C6.274,9.743,4.073,6.96,4.073,4.247A3.127,3.127,0,0,1,7.2,1.124ZM1.472,13.267l1.649-3.3h2A16.783,16.783,0,0,0,6.8,12.016a.562.562,0,0,0,.8,0A16.788,16.788,0,0,0,9.272,9.969h2l1.649,3.3Zm0,0" transform="translate(19 111.001)"/></g></svg>