<svg xmlns="http://www.w3.org/2000/svg" xmlns:xlink="http://www.w3.org/1999/xlink" width="593.536" height="346.143" viewBox="0 0 593.536 346.143">
  <defs>
    <linearGradient id="linear-gradient" y1="0.5" x2="1" y2="0.5" gradientUnits="objectBoundingBox">
      <stop offset="0" stop-color="#ed3237"/>
      <stop offset="1" stop-color="#c40e13"/>
    </linearGradient>
    <linearGradient id="linear-gradient-5" x1="0.464" y1="0.343" x2="0.354" y2="1.378" gradientUnits="objectBoundingBox">
      <stop offset="0.083" stop-color="#c3dfe8"/>
      <stop offset="1" stop-color="#b3c4e8"/>
    </linearGradient>
    <linearGradient id="linear-gradient-6" x1="0.504" y1="-0.022" x2="0.378" y2="0.729" xlink:href="#linear-gradient-5"/>
  </defs>
  <g id="Group_216" data-name="Group 216" transform="translate(-803.537 -267.909)">
    <g id="Group_182" data-name="Group 182" transform="translate(803.537 370.006)">
      <g id="Group_78" data-name="Group 78" transform="translate(0)">
        <path id="Path_34" data-name="Path 34" d="M1637.073,1137.214c7.181-3.435,14.327,19.425,14.327,19.425,12.2,16.127,29.261-5.327,27.593,18.781-2.919,42.186,48.557,13.266,24.809,57.309s20.969,24.9,6.211,60.416,4.371,77.869-17.835,60.463c0,0-19.552-42.876-39.716-56.142s12.08-29.006,5.771-47.024c-9.164-26.17-31.242-25.142-15.323-53.266S1612.664,1148.888,1637.073,1137.214Z" transform="translate(-1629.797 -1136.863)" fill="url(#linear-gradient)"/>
        <g id="Group_74" data-name="Group 74" transform="translate(28.905 44.724)">
          <path id="Path_35" data-name="Path 35" d="M1755.171,1424.059c-9.625-6.769-20.89-53.943-21.562-82.04-.344-14.392-4.6-20.389-8.352-25.679-3.588-5.057-6.687-9.424-4.882-19.453,3.449-19.164-5.62-27.436-5.712-27.517l1.05-1.2c.4.353,9.849,8.885,6.229,29-1.687,9.37,1.094,13.288,4.613,18.249,3.693,5.205,8.289,11.683,8.646,26.562.721,30.153,12.238,74.694,20.886,80.776Z" transform="translate(-1714.663 -1268.174)" fill="#fff"/>
        </g>
        <g id="Group_75" data-name="Group 75" transform="translate(61.089 109.613)">
          <path id="Path_36" data-name="Path 36" d="M1821.084,1553.187a20.55,20.55,0,0,1-4.07-.441c-3.71-.75-6.142-2.707-7.23-5.817-2.595-7.42,3.417-19.475,8.3-25.286a37.094,37.094,0,0,0,7.377-23.913c-.146-2.319-.387-4.465-.6-6.359-.614-5.475-1.057-9.431,1.295-12.073,2.073-2.329,6.073-3.337,13.377-3.372,12.81-.06,17.875-5.364,21.945-9.626a23.256,23.256,0,0,1,5.344-4.6h0c6.384-3.485,13.146-4,16.079-1.218,1.392,1.321,2.569,3.907.262,8.73a33.733,33.733,0,0,1-7.041,9.44c-2.957,3.017-4.91,5.01-3.894,8.982.239.933.514,1.874.791,2.819,1.975,6.754,4.213,14.41-7.347,19.6-2.453,1.1-4.688,1.98-6.661,2.754-8.069,3.167-12.94,5.079-18.438,16.685-1.064,2.247-2,4.376-2.913,6.436C1833.323,1545.755,1830.043,1553.186,1821.084,1553.187Zm46.5-90.092a21.786,21.786,0,0,0-4.956,4.3c-4.277,4.479-9.6,10.055-23.088,10.118-6.716.032-10.477.907-12.2,2.838-1.88,2.112-1.47,5.772-.9,10.837.214,1.912.457,4.079.606,6.436a38.026,38.026,0,0,1-7.745,25.036c-4.83,5.751-10.3,17.2-8.014,23.738.889,2.543,2.922,4.152,6.042,4.783,10.886,2.2,13.892-4.612,18.872-15.9.913-2.069,1.857-4.209,2.93-6.475,5.769-12.177,11.15-14.289,19.3-17.485,1.955-.767,4.171-1.637,6.59-2.724,10.3-4.627,8.438-10.98,6.471-17.706-.281-.962-.562-1.921-.8-2.871-1.239-4.841,1.2-7.335,4.3-10.491a31.917,31.917,0,0,0,6.742-9.013c1.045-2.185,1.908-5.154.079-6.887-2.405-2.28-8.519-1.652-14.22,1.46Z" transform="translate(-1809.159 -1458.695)" fill="url(#linear-gradient)"/>
        </g>
        <g id="Group_76" data-name="Group 76" transform="translate(67.526 122.326)">
          <path id="Path_37" data-name="Path 37" d="M1829.648,1586.989l-1.59-.083c.078-1.494,2.084-36.7,16.219-47,15.507-11.3,20.4-23.451,22.725-31.6,2.744-9.608,16.709-12.176,17.3-12.28l.277,1.567c-.136.024-13.579,2.5-16.049,11.15-2.393,8.38-7.414,20.861-23.318,32.454C1831.687,1551.052,1829.667,1586.631,1829.648,1586.989Z" transform="translate(-1828.059 -1496.02)" fill="url(#linear-gradient)"/>
        </g>
        <path id="Path_38" data-name="Path 38" d="M1822.449,1241.424c-10.047-3.445-7.959,15.919-12.2,30.246s-47.226,6.25-29.185,42.127-22.817,12-10.613,43.306,1.061,64.791,14.327,56.274,7.453-47.941,21.249-52.626,16.048-10.148,2.388-22.884,35.794-25.378,23.589-51.094S1834.057,1245.4,1822.449,1241.424Z" transform="translate(-1721.015 -1205.545)" fill="url(#linear-gradient)"/>
        <g id="Group_77" data-name="Group 77" transform="translate(63.674 80.789)">
          <path id="Path_39" data-name="Path 39" d="M1822.989,1499.6c-1.264-5.359-12.053-52.525-1.986-58.227,8.873-5.025,8.655-24.57,7.271-43.025-1.225-16.338,19.757-23.973,20.651-24.29l.532,1.5c-.208.074-20.729,7.548-19.6,22.671,1.422,18.954,1.574,39.066-8.074,44.529-7.645,4.33-.607,42.235,2.751,56.476Z" transform="translate(-1816.748 -1374.063)" fill="#fff"/>
        </g>
        <path id="Path_40" data-name="Path 40" d="M1784.522,1693.351l-14.344,54.419h-32.056l-14.344-54.419Z" transform="translate(-1691.769 -1503.815)" fill="url(#linear-gradient-5)"/>
        <path id="Path_41" data-name="Path 41" d="M1784.521,1693.351s-31.578,5.929-31.578,54.419h-14.822l-14.344-54.419Z" transform="translate(-1691.769 -1503.816)" fill="url(#linear-gradient-6)"/>
      </g>
    </g>
    <g id="Group_215" data-name="Group 215" transform="translate(907.766 267.909)">
      <g id="medical_supplies" data-name="medical supplies" transform="translate(112.622 75.512)">
        <g id="gel" transform="translate(0)">
          <path id="Path_119" data-name="Path 119" d="M275.8,117.038v16.2l-.138,2.25L263.39,336.469c-1.462,5.551-5.1,10.55-10.247,14.53q-1.375,1.065-2.89,2.024H195.616q-1.512-.96-2.89-2.024c-5.15-3.98-8.785-8.98-10.247-14.53L170.206,135.486l-.138-2.25v-16.2Z" transform="translate(-170.068 -117.038)" fill="#5293f1"/>
          <g id="Group_188" data-name="Group 188" transform="translate(22.496 234.187)">
            <rect id="Rectangle_43" data-name="Rectangle 43" width="60.74" height="27.446" transform="translate(0.001)" fill="#5293f1"/>
            <path id="Path_120" data-name="Path 120" d="M242.368,252.165v.224a7.423,7.423,0,0,1-7.425,7.425H189.052a7.425,7.425,0,0,1-7.425-7.425v-.224Z" transform="translate(-181.627 -223.369)" fill="#5293f1"/>
          </g>
          <path id="Path_121" data-name="Path 121" d="M275.8,125.361,263.39,328.594c-1.462,5.551-5.1,10.55-10.247,14.53-.1.074-.2.152-.3.226h.457v29.02a7.425,7.425,0,0,1-7.425,7.425h-8.573v-7.649H192.564V370.8H214.5v-3.6a3.824,3.824,0,0,1,3.824-3.824h9.225a3.823,3.823,0,0,1,3.822,3.824v3.6h5.938V345.149H192.564v-2.024H236.27c5.152-3.98,8.783-8.98,10.247-14.53l.512-8.413,9.758-159.775h-84.58l-.576-9.449h85.732l1.427-23.347H170.206l-.138-2.25Z" transform="translate(-170.068 -109.163)" fill="#1f5b99"/>
          <path id="Path_122" data-name="Path 122" d="M210.617,158.185a27.532,27.532,0,0,0-27.533,27.533,28,28,0,0,0,.165,3.04,27.538,27.538,0,0,0,54.739,0,28,28,0,0,0,.165-3.04A27.534,27.534,0,0,0,210.617,158.185Zm17.71,33.366H216.45v11.878H204.786V191.551H192.91V179.889h11.876V168.011H216.45v11.878h11.878Z" transform="translate(-157.752 -78.105)" fill="#1f5b99"/>
          <g id="Group_189" data-name="Group 189" transform="translate(9.058 3.382)">
            <path id="Path_123" data-name="Path 123" d="M176.184,129.575a1.462,1.462,0,0,1-1.462-1.462V120.24a1.462,1.462,0,1,1,2.923,0v7.874A1.462,1.462,0,0,1,176.184,129.575Z" transform="translate(-174.722 -118.776)" fill="#1f5b99"/>
            <path id="Path_124" data-name="Path 124" d="M179.305,129.575a1.464,1.464,0,0,1-1.464-1.462V120.24a1.463,1.463,0,1,1,2.925,0v7.874A1.462,1.462,0,0,1,179.305,129.575Z" transform="translate(-171.77 -118.776)" fill="#1f5b99"/>
            <path id="Path_125" data-name="Path 125" d="M182.252,129.575a1.462,1.462,0,0,1-1.462-1.462V120.24a1.462,1.462,0,1,1,2.923,0v7.874A1.462,1.462,0,0,1,182.252,129.575Z" transform="translate(-168.981 -118.776)" fill="#1f5b99"/>
            <path id="Path_126" data-name="Path 126" d="M185.49,129.575a1.464,1.464,0,0,1-1.464-1.462V120.24a1.463,1.463,0,1,1,2.925,0v7.874A1.462,1.462,0,0,1,185.49,129.575Z" transform="translate(-165.919 -118.776)" fill="#1f5b99"/>
            <path id="Path_127" data-name="Path 127" d="M188.667,129.575a1.462,1.462,0,0,1-1.462-1.462V120.24a1.462,1.462,0,1,1,2.923,0v7.874A1.462,1.462,0,0,1,188.667,129.575Z" transform="translate(-162.911 -118.776)" fill="#1f5b99"/>
            <path id="Path_128" data-name="Path 128" d="M191.672,129.575a1.463,1.463,0,0,1-1.462-1.462V120.24a1.463,1.463,0,1,1,2.925,0v7.874A1.464,1.464,0,0,1,191.672,129.575Z" transform="translate(-160.067 -118.776)" fill="#1f5b99"/>
            <path id="Path_129" data-name="Path 129" d="M194.793,129.575a1.462,1.462,0,0,1-1.462-1.462V120.24a1.463,1.463,0,1,1,2.925,0v7.874A1.464,1.464,0,0,1,194.793,129.575Z" transform="translate(-157.114 -118.776)" fill="#1f5b99"/>
            <path id="Path_130" data-name="Path 130" d="M197.742,129.575a1.464,1.464,0,0,1-1.464-1.462V120.24a1.463,1.463,0,1,1,2.925,0v7.874A1.462,1.462,0,0,1,197.742,129.575Z" transform="translate(-154.326 -118.776)" fill="#1f5b99"/>
            <path id="Path_131" data-name="Path 131" d="M200.977,129.575a1.462,1.462,0,0,1-1.462-1.462V120.24a1.462,1.462,0,1,1,2.923,0v7.874A1.462,1.462,0,0,1,200.977,129.575Z" transform="translate(-151.263 -118.776)" fill="#1f5b99"/>
            <path id="Path_132" data-name="Path 132" d="M204.157,129.575a1.464,1.464,0,0,1-1.464-1.462V120.24a1.463,1.463,0,1,1,2.925,0v7.874A1.462,1.462,0,0,1,204.157,129.575Z" transform="translate(-148.256 -118.776)" fill="#1f5b99"/>
            <path id="Path_133" data-name="Path 133" d="M207.22,129.575a1.464,1.464,0,0,1-1.464-1.462V120.24a1.463,1.463,0,1,1,2.925,0v7.874A1.462,1.462,0,0,1,207.22,129.575Z" transform="translate(-145.358 -118.776)" fill="#1f5b99"/>
            <path id="Path_134" data-name="Path 134" d="M210.339,129.575a1.462,1.462,0,0,1-1.462-1.462V120.24a1.463,1.463,0,1,1,2.925,0v7.874A1.464,1.464,0,0,1,210.339,129.575Z" transform="translate(-142.405 -118.776)" fill="#1f5b99"/>
            <path id="Path_135" data-name="Path 135" d="M213.288,129.575a1.464,1.464,0,0,1-1.464-1.462V120.24a1.463,1.463,0,1,1,2.925,0v7.874A1.462,1.462,0,0,1,213.288,129.575Z" transform="translate(-139.616 -118.776)" fill="#1f5b99"/>
            <path id="Path_136" data-name="Path 136" d="M216.523,129.575a1.462,1.462,0,0,1-1.462-1.462V120.24a1.463,1.463,0,1,1,2.925,0v7.874A1.464,1.464,0,0,1,216.523,129.575Z" transform="translate(-136.553 -118.776)" fill="#1f5b99"/>
            <path id="Path_137" data-name="Path 137" d="M219.7,129.575a1.464,1.464,0,0,1-1.464-1.462V120.24a1.463,1.463,0,1,1,2.925,0v7.874A1.462,1.462,0,0,1,219.7,129.575Z" transform="translate(-133.546 -118.776)" fill="#1f5b99"/>
          </g>
        </g>
        <g id="pill_bottle" data-name="pill bottle" transform="translate(115.425 33.101)">
          <path id="Path_138" data-name="Path 138" d="M377.191,205.864v124a24.989,24.989,0,0,1-24.975,25H254.35a24.988,24.988,0,0,1-24.974-25v-124a42.223,42.223,0,0,1,37.458-41.972V151.7h72.9v12.187A42.226,42.226,0,0,1,377.191,205.864Z" transform="translate(-229.376 -117.337)" fill="#1f5b99"/>
          <path id="Path_139" data-name="Path 139" d="M241.168,187.954V256.8H343.084V187.954Zm81.1,46.347H261.981v-8.1H322.27Zm0-15.749H261.981v-8.1H322.27Z" transform="translate(-218.219 -83.039)" fill="#5f9df1"/>
          <g id="Group_191" data-name="Group 191" transform="translate(28.911)">
            <path id="Path_140" data-name="Path 140" d="M334.225,138.32V164.2A4.25,4.25,0,0,1,330,168.47H248.454a4.249,4.249,0,0,1-4.223-4.274V138.32a4.249,4.249,0,0,1,4.223-4.274H330A4.25,4.25,0,0,1,334.225,138.32Z" transform="translate(-244.231 -134.046)" fill="#434343"/>
            <g id="Group_190" data-name="Group 190" transform="translate(9.9 5.514)">
              <path id="Path_141" data-name="Path 141" d="M251.568,160.276a2.248,2.248,0,0,1-2.25-2.25v-18.9a2.249,2.249,0,1,1,4.5,0v18.9A2.248,2.248,0,0,1,251.568,160.276Z" transform="translate(-249.318 -136.879)" fill="#fed981"/>
              <path id="Path_142" data-name="Path 142" d="M258.157,160.276a2.248,2.248,0,0,1-2.25-2.25v-18.9a2.25,2.25,0,1,1,4.5,0v18.9A2.25,2.25,0,0,1,258.157,160.276Z" transform="translate(-243.084 -136.879)" fill="#fed981"/>
              <path id="Path_143" data-name="Path 143" d="M264.631,160.276a2.248,2.248,0,0,1-2.25-2.25v-18.9a2.249,2.249,0,1,1,4.5,0v18.9A2.248,2.248,0,0,1,264.631,160.276Z" transform="translate(-236.958 -136.879)" fill="#fed981"/>
              <path id="Path_144" data-name="Path 144" d="M271.682,160.276a2.25,2.25,0,0,1-2.25-2.25v-18.9a2.25,2.25,0,1,1,4.5,0v18.9A2.248,2.248,0,0,1,271.682,160.276Z" transform="translate(-230.286 -136.879)" fill="#fed981"/>
              <path id="Path_145" data-name="Path 145" d="M278.387,160.276a2.25,2.25,0,0,1-2.25-2.25v-18.9a2.25,2.25,0,0,1,4.5,0v18.9A2.248,2.248,0,0,1,278.387,160.276Z" transform="translate(-223.942 -136.879)" fill="#bfa361"/>
              <path id="Path_146" data-name="Path 146" d="M285.322,160.276a2.248,2.248,0,0,1-2.248-2.25v-18.9a2.249,2.249,0,1,1,4.5,0v18.9A2.248,2.248,0,0,1,285.322,160.276Z" transform="translate(-217.378 -136.879)" fill="#bfa361"/>
            </g>
          </g>
          <path id="Path_147" data-name="Path 147" d="M358.98,222.573v124a24.988,24.988,0,0,1-24.974,25H311.059a24.987,24.987,0,0,0,24.972-25v-124a41.916,41.916,0,0,0-35-41.687c.01-.1.01-8.814.01-8.814H248.623v-3.6h52.415V134.046h24.81a4.249,4.249,0,0,1,4.221,4.274v25.875a4.249,4.249,0,0,1-4.221,4.276h-4.326V180.6l0,.234,0-.234A42.221,42.221,0,0,1,358.98,222.573Z" transform="translate(-211.165 -134.046)" fill="#d1d3d4" style="mix-blend-mode: multiply;isolation: isolate"/>
        </g>
        <g id="spray" transform="translate(58.053 80.611)">
          <path id="Path_148" data-name="Path 148" d="M262.887,231.486v62.539a12.6,12.6,0,0,1-12.6,12.6h-37.8a12.6,12.6,0,0,1-12.6-12.6V231.486c0-15.9,14.1-28.794,31.5-28.794S262.887,215.584,262.887,231.486Z" transform="translate(-199.897 -116.604)" fill="#434343"/>
          <path id="Path_149" data-name="Path 149" d="M242.158,239.408v8.962a.632.632,0,0,1-.675.58H207.739a.633.633,0,0,1-.675-.58v-8.962a.635.635,0,0,1,.675-.582h8.4a.606.606,0,0,1-.226-.043.632.632,0,0,1-.413-.594v-1.761a.6.6,0,0,1,.029-.189H209.7a2.277,2.277,0,1,1,0-4.5h4.57l7.156-71.556.074-.718a.912.912,0,0,1,.113-.14,5.628,5.628,0,0,1,6.006,0,1.09,1.09,0,0,1,.117.14l.072.718,7.152,71.556h4.57a2.278,2.278,0,1,1,0,4.5h-5.833a.6.6,0,0,1,.027.189v1.761a.635.635,0,0,1-.634.636h8.4A.634.634,0,0,1,242.158,239.408Z" transform="translate(-193.116 -158.458)" fill="#dbdff0"/>
          <path id="Rectangle_44" data-name="Rectangle 44" d="M4.248,0H31.972a4.247,4.247,0,0,1,4.247,4.247V55.475a4.248,4.248,0,0,1-4.248,4.248H4.248A4.248,4.248,0,0,1,0,55.475V4.248A4.248,4.248,0,0,1,4.248,0Z" transform="translate(13.386 111.301)" fill="#99d9f0"/>
          <g id="Group_192" data-name="Group 192" transform="translate(30.594)">
            <path id="Path_150" data-name="Path 150" d="M215.617,158.514a3.688,3.688,0,0,1,2.1.812.93.93,0,0,1,.115.14l.072.718,4.906,71.556h4.048l-7.156-71.556-.072-.718a.912.912,0,0,0-.113-.14,4.51,4.51,0,0,0-3-.868A7.034,7.034,0,0,0,215.617,158.514Z" transform="translate(-215.617 -158.458)" fill="#99d9f0"/>
            <path id="Path_151" data-name="Path 151" d="M243.59,234.267v62.541a12.6,12.6,0,0,1-12.6,12.6h-8.55a12.6,12.6,0,0,0,12.6-12.6V234.267c0-10.276-5.889-19.295-14.748-24.39h.463V199.753h8.059a.657.657,0,0,1,.712.582V209.3a.656.656,0,0,1-.712.58C237.7,214.974,243.59,223.993,243.59,234.267Z" transform="translate(-211.194 -119.385)" fill="#99d9f0" style="mix-blend-mode: multiply;isolation: isolate"/>
          </g>
        </g>
      </g>
      <g id="people" transform="translate(0 0)">
        <g id="doctor_2" transform="translate(408.118 9.499)">
          <g id="head" transform="translate(11.077)">
            <path id="Path_203" data-name="Path 203" d="M369.52,187.923l-2.989-16.959c.278-1.39.586-2.711.911-3.978.806-3.137,1.724-5.951,2.627-8.635,2.838-8.441,5.5-15.589,3.852-27.4a2.487,2.487,0,0,0-.344-.959c-1.483-2.458-7.269-3.528-14.338-3.816,0-.045-.006-.088-.01-.134-2.347-5.262-2.439-24.181-7.837-25.627-4.648-1.246-9.548-6.718-11.669-9.322-2.23,1.131-3.828,2.643-3.918,4.55-.28,5.841-.111,18.911,3.133,19.267,2.816.309,4.683.44,5.128.469.074,0,.105.006.105.006l1.115,8.686.218,1.7s.043.228.15.6c-2.937.169-5.792.4-8.382.658-1.713.171-3.311.352-4.741.537a10.744,10.744,0,0,0-4.937,1.613c.43-18.876,1.662-41.874,5.107-43.383,5.229-2.293,22.422-4.521,27.881-.282s43.457,117.05,21.227,127.291a17.271,17.271,0,0,1-5.506,1.539c-.459-.771-.928-1.545-1.4-2.31-.7-1.139-1.405-2.265-2.1-3.355-1.436-2.263-2.816-4.377-3.988-6.14Z" transform="translate(-327.593 -83.119)" fill="#2f4563"/>
            <g id="Group_198" data-name="Group 198" transform="translate(8.118 7.971)">
              <path id="Path_204" data-name="Path 204" d="M355.291,122.3c-4.3-.175-9.042-.066-13.584.195-.107-.372-.15-.6-.15-.6l-.218-1.7-1.115-8.686c-.551-.035-2.417-.165-5.233-.475-3.244-.356-3.414-13.427-3.133-19.267.089-1.907,1.687-3.419,3.918-4.55,2.121,2.6,7.022,8.077,11.669,9.322,5.4,1.446,5.49,20.365,7.837,25.627C355.286,122.211,355.288,122.254,355.291,122.3Z" transform="translate(-331.764 -87.215)" fill="#fea070"/>
              <path id="Path_205" data-name="Path 205" d="M336.065,101.168c.089.006,1.2,8.692,1.2,8.692,1.458-.267,6.876-1.927,6.635-11.724C343.9,98.136,338.832,101.011,336.065,101.168Z" transform="translate(-327.695 -76.882)" fill="#fea070" style="mix-blend-mode: multiply;isolation: isolate"/>
            </g>
          </g>
          <g id="body" transform="translate(4.652 42.97)">
            <g id="legs" transform="translate(2.655 171.594)">
              <g id="Group_199" data-name="Group 199">
                <path id="Path_206" data-name="Path 206" d="M344.9,250.367c0,.072-.158,11.146-.158,11.146h-3.456l.012-4.949a19.27,19.27,0,0,1-4.221,4.949H325.656l3.9-4.258,6.993-6.457.43-.4C337.01,250.369,344.9,250.367,344.9,250.367Z" transform="translate(-325.656 -139.434)" fill="#2f4563"/>
                <path id="Path_207" data-name="Path 207" d="M339.739,251.943c0-.06-7.886-.058-7.886-.058-.035.031-.465.428-.465.428-.072-.932-.169-2.125-.282-3.548l8.919.224C339.916,250.108,339.823,251.1,339.739,251.943Z" transform="translate(-320.499 -140.95)" fill="#fea070"/>
                <path id="Path_208" data-name="Path 208" d="M352.225,231.594c-1.52,11.677-3.556,53.464-5.136,69.886l-2.991-.074-8.919-.224-1.563-.039c-1.419-17.9-4.214-71.945-6.627-102.642-.025-.311-.049-.617-.072-.921l-.016-.191c-.02-.239-.039-.477-.056-.714-.018-.2-.029-.407-.037-.611l-.006-.128v-2.569l21.978.123c.158.687.378,2.511.669,5.011C350.569,208.1,352.731,227.717,352.225,231.594Z" transform="translate(-324.572 -193.367)" fill="#2f4563"/>
                <path id="Path_209" data-name="Path 209" d="M348.854,193.49c.084.687.3,2.511.6,5.011H326.989c-.049-.619-.1-1.226-.144-1.826-.018-.2-.029-.407-.037-.611l-.006-.128v-2.569Z" transform="translate(-324.572 -193.367)" fill="#28aeef" style="mix-blend-mode: multiply;isolation: isolate"/>
              </g>
              <g id="Group_200" data-name="Group 200" transform="translate(35.306 0.183)">
                <path id="Path_210" data-name="Path 210" d="M352.569,261.512h11.413a19.276,19.276,0,0,0,4.225-4.949l-.014,4.949h3.456l.152-10.663.008-.422c0-.06-7.717-.058-7.717-.058h-.173l-7.458,6.886Z" transform="translate(-335.497 -139.616)" fill="#2f4563"/>
                <path id="Path_211" data-name="Path 211" d="M358.672,252.476l.008.415c-.132-1.035-.341-2.621-.636-4.688l8.3.169c.019,1.711.033,3.083.045,4.046l-7.719,0Z" transform="translate(-330.318 -141.665)" fill="#fea070"/>
                <path id="Path_212" data-name="Path 212" d="M382.372,300.217l-2.548-.053-8.3-.167L370,299.966c-2.343-16.146-7.886-58.076-22.36-96.144-.074-.179-.111-.261-.154-.362-.068-.156-.091-.21-.117-.267l-.039-.091c-.019-.045-.039-.091-.06-.138-.052-.123-.109-.255-.171-.4-.023-.058-.049-.115-.074-.175-.051-.117-.105-.241-.16-.37q-.044-.1-.088-.2c-.1-.236-.212-.485-.323-.742-.041-.1-.086-.2-.13-.3-.093-.22-.191-.446-.288-.671l-.049-.113c-.136-.313-.271-.63-.4-.94-.047-.105-.089-.21-.132-.311s-.093-.22-.138-.327-.08-.189-.121-.28c-.045-.109-.068-.164-.091-.218s-.045-.107-.066-.16c-.047-.105-.088-.21-.132-.311s-.084-.2-.119-.286l-.105-.249c-.117-.284-.22-.535-.3-.745a5.974,5.974,0,0,1-.224-.617l-.039-.232c-.041-.239-.086-.494-.132-.769-.057-.335-.119-.7-.181-1.084l21.165.117,1.347.008c.272.605,1.07,2.376,2.121,4.827,2.88,6.707,7.674,18.491,8.89,25.264C378.972,232.873,382.372,300.217,382.372,300.217Z" transform="translate(-343.797 -193.461)" fill="#2f4563"/>
                <path id="Path_213" data-name="Path 213" d="M368.43,198.412H345.311c-.385-.9-.726-1.717-.938-2.25a5.974,5.974,0,0,1-.224-.617c-.1-.578-.218-1.277-.352-2.084l21.165.117,1.347.008C366.581,194.191,367.379,195.962,368.43,198.412Z" transform="translate(-343.797 -193.461)" fill="#28aeef" style="mix-blend-mode: multiply;isolation: isolate"/>
              </g>
            </g>
            <g id="lab_coat" data-name="lab coat">
              <path id="Path_214" data-name="Path 214" d="M386.024,127.015c-2.25-7.425-4.8-12.146-6.94-15.1A22.194,22.194,0,0,0,376.7,109.1c-1.483-2.458-7.269-3.528-14.338-3.816-4.3-.175-9.042-.066-13.584.195-2.937.169-5.792.4-8.382.658-1.713.171-3.311.352-4.741.537a10.744,10.744,0,0,0-4.937,1.613c-5.2,3.709.8,12.74-4.494,25-5.735,13.283,3.032,16.506,4.042,36.378.313,6.154-.387,29.617-1.232,53.022-.973,27.087-2.137,54.094-2.137,54.094l2.281.014,22.052.123,11.023.062,21.165.115,1.347.01,2.764.014s0-62.315-1.347-69.726c-.529-2.91-3.445-8.4-6.755-13.937-.459-.771-.928-1.545-1.4-2.31-.7-1.139-1.405-2.265-2.1-3.355-1.436-2.263-2.816-4.377-3.988-6.14,1.049-.237,2.1-.479,3.151-.73,9.159-2.18,18.016-4.825,21.036-7.413C403.2,167.441,391.076,143.69,386.024,127.015Zm-6.57,35.876a35.841,35.841,0,0,1-6.81,4.141c-1.407.712-2.931,1.446-4.5,2.176a84.223,84.223,0,0,1,1.508-19.139c.278-1.386.586-2.707.911-3.974.806-3.137,1.724-5.951,2.627-8.635C377.715,148.962,382.655,160.012,379.453,162.891Z" transform="translate(-324.292 -105.198)" fill="#dbdff0"/>
              <path id="Path_215" data-name="Path 215" d="M354.507,105.282a9.827,9.827,0,0,1-.961,3.042c-3.437,7.464-14.855,20.581-15.951,20.581-1.283,0-4.7-18.892-5.029-22.768,2.59-.257,5.445-.489,8.382-.658C345.491,105.218,350.234,105.109,354.507,105.282Z" transform="translate(-316.462 -105.198)" fill="#bcc0cf"/>
            </g>
          </g>
          <g id="tablet" transform="translate(15.94 78.482)">
            <path id="Path_216" data-name="Path 216" d="M367.156,149.767c-1.407.712-2.925,1.46-4.5,2.176-9.33,4.241-18.506,7.833-18.506,7.833s-7.586-2.226-8.849-5c-.16-.352-.311-.524-.453-.547l-4.692-26.612a3.4,3.4,0,0,1,3.433-4.169h24.756a5.208,5.208,0,0,1,4.669,3.324,4.49,4.49,0,0,1,.235.845Z" transform="translate(-330.091 -123.445)" fill="#5091ea"/>
            <path id="Path_217" data-name="Path 217" d="M363.854,153.413H339.1a4.753,4.753,0,0,1-2.312-.629,5.2,5.2,0,0,1-2.592-3.54l-.475-2.694-.222-1.265a86.267,86.267,0,0,0,7.929,3.832c.327-.082,1.133-.216,2.31-.42.035-.008,11.6-2.082,19.5-3.863,1.049-.237,2.1-.479,3.151-.73l.617,3.5.29,1.645A3.4,3.4,0,0,1,363.854,153.413Z" transform="translate(-326.869 -103.898)" fill="#5091ea"/>
            <g id="Group_201" data-name="Group 201" transform="translate(6.628 40.206)">
              <path id="Path_218" data-name="Path 218" d="M367.718,150.989a3.4,3.4,0,0,1-3.1,1.777H339.856a5.21,5.21,0,0,1-4.669-3.322,4.753,4.753,0,0,0,2.312.629h24.756a3.359,3.359,0,0,0,3.365-2.439C366.312,148.724,367.017,149.851,367.718,150.989Z" transform="translate(-331.898 -140.764)" fill="#cbccfe" style="mix-blend-mode: multiply;isolation: isolate"/>
              <path id="Path_219" data-name="Path 219" d="M366.382,144.1c-.175.041-2.657.619-3.151.73-7.894,1.781-15.54,3.174-19.392,3.844-.035.008-2.086.358-2.415.413a76.933,76.933,0,0,1-7.927-3.8l.222,1.265c1.5,1.74,8.567,4.846,10.009,5.469a.946.946,0,0,0,.533.062c1.862-.315,12.858-2.209,22.737-4.482Z" transform="translate(-333.497 -144.104)" fill="#99d9f0" style="mix-blend-mode: multiply;isolation: isolate"/>
            </g>
          </g>
          <g id="hands" transform="translate(0 44.427)">
            <path id="Path_220" data-name="Path 220" d="M342.876,153.7l-.171-.07a73.558,73.558,0,0,1-7.758-3.762c-.1-.056-.191-.113-.284-.169a6.12,6.12,0,0,1-2.4-2.061c-.662-1.765-.167-8.544.81-8.376.142.023.294.195.453.547,1.263,2.777,8.849,5,8.849,5l.121,2.174.374,6.687Z" transform="translate(-312.379 -74.427)" fill="#fea070"/>
            <g id="Group_202" data-name="Group 202">
              <path id="Path_221" data-name="Path 221" d="M332.527,168.953c.313,6.154-.387,29.617-1.232,53.022l-.451,7.946s-4.819,1.244-7.382.457a1.932,1.932,0,0,1-1.376-2.814c1.683-5.052.09-67.309,1.01-93.98,1.01-29.306,14.82-27.62,14.82-27.62-13.137,1.683-3.03,11.788-9.431,26.61C322.749,145.858,331.517,149.081,332.527,168.953Z" transform="translate(-321.901 -105.947)" fill="#cecece"/>
              <path id="Path_222" data-name="Path 222" d="M330.085,169.648l-1.012,19.538s-2.02-.673-4.042-4.379c-1.7-3.124-2.211-12-2.328-14.7C325.266,170.892,330.085,169.648,330.085,169.648Z" transform="translate(-321.143 -45.673)" fill="#fea070"/>
            </g>
          </g>
        </g>
        <g id="doctor_1" transform="translate(0)">
          <g id="body-2" data-name="body" transform="translate(0.519 45.038)">
            <g id="legs-2" data-name="legs" transform="translate(13.648 196.075)">
              <g id="Group_203" data-name="Group 203" transform="translate(49.965)">
                <path id="Path_223" data-name="Path 223" d="M73.576,252.8v6.615h25.03a10.367,10.367,0,0,0-8.538-6.687,35.057,35.057,0,0,0-3.785-.148C81.277,252.552,73.576,252.8,73.576,252.8Z" transform="translate(-65.321 -154.39)" fill="#2f4563"/>
                <path id="Path_224" data-name="Path 224" d="M69.334,202.128l.544,5.769.014.131L77.47,298H93.6l1.412-89.972,0-.131.185-5.769Z" transform="translate(-69.334 -202.128)" fill="#2f4563"/>
                <path id="Path_225" data-name="Path 225" d="M73.576,251.389v2.542s7.7-.251,12.707-.22v-2.322Z" transform="translate(-65.321 -155.518)" fill="#fea070"/>
                <path id="Path_226" data-name="Path 226" d="M69.334,202.128l.544,5.769.014.131h25.12l0-.131.185-5.769Z" transform="translate(-69.334 -202.128)" fill="#2f4563" style="mix-blend-mode: multiply;isolation: isolate"/>
              </g>
              <g id="Group_204" data-name="Group 204">
                <path id="Path_227" data-name="Path 227" d="M43.661,259.418h25.03V252.8s-7.7-.251-12.707-.22a35.056,35.056,0,0,0-3.785.148A10.367,10.367,0,0,0,43.661,259.418Z" transform="translate(-43.661 -154.39)" fill="#2f4563"/>
                <path id="Path_228" data-name="Path 228" d="M49.993,251.415v2.271c5.006-.031,12.707.22,12.707.22v-2.491Z" transform="translate(-37.67 -155.493)" fill="#fea070"/>
                <path id="Path_229" data-name="Path 229" d="M47.33,202.128l.179,5.732,0,.131,1.793,90.06h16.13l7.2-90.06.014-.131.541-5.732Z" transform="translate(-40.189 -202.128)" fill="#2f4563"/>
                <path id="Path_230" data-name="Path 230" d="M47.33,202.128l.179,5.732,0,.131h25.12l.014-.131.541-5.732Z" transform="translate(-40.189 -202.128)" fill="#2f4563" style="mix-blend-mode: multiply;isolation: isolate"/>
              </g>
            </g>
            <g id="lab_coat-2" data-name="lab coat">
              <g id="Group_205" data-name="Group 205" transform="translate(0 3.616)">
                <path id="Path_231" data-name="Path 231" d="M39.645,219.344a54.042,54.042,0,0,0,3.573,9.484A67.224,67.224,0,0,0,50.442,239.4L48.1,295.7H132.42l-2.382-64.6s-.319-35.244-.66-47.483a24.9,24.9,0,0,1,.127-3.011,40.48,40.48,0,0,0,5.181,11.377c9.39,13.66,62.039,14.657,62.039,14.657V192.553s-45.107-15.511-48.949-26.182c-4.716-13.1-9.353-30.474-11.543-39.023-.679-2.657-1.127-4.463-1.263-5.017-.031-.076-.054-.136-.08-.2a11.444,11.444,0,0,0-1.67-2.832c-6.07-7.37-14.145-10.5-21.817-15.213l-9.562,27.28L92.978,156.64l-6.707-25.291-7.456-28.111c-5.784.7-24.012,11.418-26.274,18.2-3.416,10.243-15.754,38.439-15.754,62.578q0,1.766.1,3.484C36.276,196.792,36.716,209.564,39.645,219.344ZM62.6,171.6l-.235,37.345a62.506,62.506,0,0,1-4.817-17.625q.406-1.7.971-3.367C58.92,186.763,60.749,179.031,62.6,171.6Z" transform="translate(-36.648 -103.238)" fill="#dbdff0"/>
                <rect id="Rectangle_45" data-name="Rectangle 45" width="19.547" height="3.258" transform="translate(25.813 37.513)" fill="#bcc0cf"/>
              </g>
              <g id="Group_207" data-name="Group 207" transform="translate(41.94)">
                <g id="SHIRT">
                  <path id="Path_232" data-name="Path 232" d="M58.2,105,72.59,158.4l18.347-52.335.074-.216a64.065,64.065,0,0,0-8.219-4.252l-.1,0-.222,0c-.245.2-.524.422-.817.662-2.326,1.88-5.891,4.669-6.566,4.669-.658,0-4.653-2.727-7.415-4.669-.393-.28-.765-.541-1.1-.777-.047-.031-.091-.062-.134-.1a43.13,43.13,0,0,0-7.65,3.3C58.6,104.78,58.4,104.887,58.2,105Z" transform="translate(-58.198 -101.38)" fill="#bcc0cf"/>
                  <g id="Group_206" data-name="Group 206" transform="translate(0.592 0.002)">
                    <path id="Path_233" data-name="Path 233" d="M66.875,106.874s.679.919,1.633,2.094c1.744,2.149,4.408,5.154,5.506,4.932,1.444-.288,7.045-6.121,8.711-7.886l.078-.216a84.338,84.338,0,0,0-7.787-4.311.7.7,0,0,0-.191-.047,1.212,1.212,0,0,0-.154-.008l-.21.037-.2.074c-.245.2-.524.424-.817.66-.489.4-1.035.835-1.6,1.275l-.315.249c-.084.068-.167.132-.251.2-.171.132-.339.265-.506.391-.086.066-.167.132-.251.195-.167.126-.333.253-.5.376s-.327.245-.483.358c-.132.1-.259.191-.385.278-.218.16-.426.307-.625.446-.385.263-.726.483-1,.64l-.142.076A1.352,1.352,0,0,1,66.875,106.874Z" transform="translate(-50.58 -101.333)" fill="#dbdff0"/>
                    <path id="Path_234" data-name="Path 234" d="M58.5,104.68c2.038,2.341,7.911,8.929,9.5,8.929,1.224,0,3.639-2.7,5.237-4.673.917-1.127,1.563-2.014,1.563-2.014a5.229,5.229,0,0,1-1.569-.761c-1.582-.946-3.994-2.606-5.846-3.91l-.952-.668q-.073-.055-.146-.105c-.043-.033-.088-.064-.13-.1A42.868,42.868,0,0,0,58.5,104.68Z" transform="translate(-58.502 -101.381)" fill="#dbdff0"/>
                  </g>
                </g>
                <path id="Path_235" data-name="Path 235" d="M62.146,130.412,68.853,155.7l8.863-25.271a95.16,95.16,0,0,0-4.546-16.508l5.319-2.67c-1.1.222-3.762-2.783-5.506-4.932-.954-1.175-1.633-2.094-1.633-2.094s-.646.887-1.563,2.014c-1.6,1.97-4.013,4.673-5.237,4.673l4.864,2.645A85.915,85.915,0,0,0,62.146,130.412Z" transform="translate(-54.462 -98.685)" fill="#434343"/>
              </g>
            </g>
          </g>
          <g id="tablet-2" data-name="tablet" transform="translate(0 133.366)">
            <g id="Group_208" data-name="Group 208" transform="translate(20.228)">
              <path id="Path_236" data-name="Path 236" d="M52.676,188.958c.012.027,3.273,6.946,3.273,6.946a20.752,20.752,0,0,1,1.578,6.142,5.27,5.27,0,0,0,1-.343c.068-.031.138-.064.206-.1a5.583,5.583,0,0,0,2.976-3.9l8.2-46.481a3.639,3.639,0,0,0-3.669-4.461H48.933C42.69,165.1,51.9,187.168,52.676,188.958Z" transform="translate(-46.775 -146.765)" fill="#5091ea"/>
              <path id="Path_237" data-name="Path 237" d="M52.676,188.956c-.775-1.789-9.986-23.856-3.743-42.192h5.914c-11.407,19.152-.058,46.514.8,48.493Z" transform="translate(-46.775 -146.765)" fill="#5091ea" style="mix-blend-mode: multiply;isolation: isolate"/>
            </g>
            <g id="Group_209" data-name="Group 209" transform="translate(0 31.394)">
              <path id="Path_238" data-name="Path 238" d="M40.125,186.9H53.984a18.57,18.57,0,0,1-1.292-1.707A64.354,64.354,0,0,1,43.47,172.38,54.042,54.042,0,0,1,39.9,162.9l-3.447,19.548A3.64,3.64,0,0,0,40.125,186.9Z" transform="translate(-36.382 -162.896)" fill="#5091ea"/>
              <path id="Path_239" data-name="Path 239" d="M40.025,167.769a67.2,67.2,0,0,0,8.419,14.523h2.092a18.723,18.723,0,0,1-1.292-1.709A64.274,64.274,0,0,1,40.025,167.769Z" transform="translate(-32.934 -158.285)" fill="#5091ea" style="mix-blend-mode: multiply;isolation: isolate"/>
            </g>
          </g>
          <g id="hands-2" data-name="hands" transform="translate(16.31 135.991)">
            <path id="Path_240" data-name="Path 240" d="M118.9,150.091v14.087s18.783-2.7,19.921-4.98,3.984-5.122-3.416-3.416c-4.029.93-8.565-.843-11.862-2.647,1.709-1.516,8.538-3.77,7.31-4.753C129.428,147.244,118.9,150.091,118.9,150.091Z" transform="translate(25.386 -148.114)" fill="#fea070"/>
            <path id="Path_241" data-name="Path 241" d="M44.762,179.945a18.569,18.569,0,0,0,1.292,1.707,19.173,19.173,0,0,0,3.464,3.27,8.748,8.748,0,0,0,6.627,1.853c2.795-.506,3.435-2.828,3.287-5.241a20.752,20.752,0,0,0-1.578-6.142s-3.272-6.934-3.273-6.946l-9.815,11.5Z" transform="translate(-44.762 -128.877)" fill="#fea070"/>
          </g>
          <g id="head-2" data-name="head" transform="translate(50.979)">
            <g id="Group_210" data-name="Group 210" transform="translate(0 13.959)">
              <path id="Path_242" data-name="Path 242" d="M62.576,116.694l.952.668c2.762,1.944,6.757,4.671,7.415,4.671a1.352,1.352,0,0,0,.512-.191c.045-.023.093-.049.142-.076a18.556,18.556,0,0,0,1.627-1.086c.127-.088.253-.181.385-.278.156-.113.319-.235.483-.358s.331-.249.5-.376c.084-.062.165-.128.251-.195.167-.13.335-.259.506-.391.084-.066.167-.132.251-.2l.315-.249c.561-.44,1.107-.878,1.6-1.275.294-.235.572-.461.817-.66l.2-.074.21-.037a1.212,1.212,0,0,1,.154.008c.014-.125.025-.247.041-.372.027-.269.058-.533.09-.792.016-.123.033-.243.047-.364.068-.524.138-1.03.21-1.5l.051-.344c.058-.366.111-.71.165-1.024.012-.068.019-.136.031-.2.123-.73.222-1.255.263-1.467a16.471,16.471,0,0,1,1.732.317,6.421,6.421,0,0,0,6.662-3.112c1.948-3.166,7.468-12.154,6.037-18.987-4.178.245-10.009-.627-11.864-2.52C79.6,83.42,76.606,88.3,74.843,93.716s-3.99-3.346-6.193-2.682-3.32,13.658-3.32,13.658-.031-.163-.08-.469a81.788,81.788,0,0,1-2.086,10.206c-.181.72-.364,1.417-.537,2.075C62.609,116.568,62.592,116.632,62.576,116.694Z" transform="translate(-62.576 -85.411)" fill="#fea070"/>
              <path id="Path_243" data-name="Path 243" d="M70.615,110.367c.561-.44,1.107-.878,1.6-1.275.294-.236.572-.461.817-.66l.2-.074.21-.037a1.209,1.209,0,0,1,.154.008c.014-.125.025-.247.041-.372.027-.269.058-.533.09-.792.016-.123.033-.243.047-.364.068-.524.138-1.03.21-1.5l.051-.344c.058-.366.111-.71.165-1.024.012-.068.019-.136.031-.2.123-.73.222-1.255.263-1.467a16.466,16.466,0,0,1,1.732.317c-2.39-.609-5.521-2.318-6.769-7.462C68.351,90.582,66.771,103.032,70.615,110.367Z" transform="translate(-57.277 -77.142)" fill="#fea070" style="mix-blend-mode: multiply;isolation: isolate"/>
            </g>
            <path id="Path_244" data-name="Path 244" d="M64.466,111.01c.049.306.08.469.08.469s1.121-12.993,3.32-13.658,4.435,8.1,6.193,2.682,4.758-10.3,7.514-7.483c1.855,1.894,7.686,2.766,11.864,2.52,2.018-.117,3.649-.488,4.262-1.135,1.888-1.979.936-5.985-4.291-9.35C85.7,80.1,78.3,75.3,69.526,80.46,60.626,85.694,63.882,107.532,64.466,111.01Z" transform="translate(-61.791 -78.238)" fill="#2f4563"/>
          </g>
        </g>
      </g>
    </g>
  </g>
</svg>
