<svg xmlns="http://www.w3.org/2000/svg" xmlns:xlink="http://www.w3.org/1999/xlink" width="231.269" height="69.381" viewBox="0 0 231.269 69.381"><defs><style>.a{fill:red;}.b{clip-path:url(#a);}.c{fill:#ed3237;fill-rule:evenodd;}.d{fill:#373435;}</style><clipPath id="a"><rect class="a" width="231.269" height="69.381" transform="translate(0)"/></clipPath></defs><g class="b"><g transform="translate(0.413 1.368)"><path class="c" d="M6.367,13.156,20.868.625A2.5,2.5,0,0,1,24.021.546,1.79,1.79,0,0,1,23.942,3.3L9.441,15.835a2.5,2.5,0,0,1-3.152.079,1.788,1.788,0,0,1,.079-2.758" transform="translate(1.356 -0.024)"/><path class="c" d="M18.517,31.6l14.5-12.531a2.5,2.5,0,0,1,3.152-.079,1.79,1.79,0,0,1-.079,2.758l-14.5,12.531a2.5,2.5,0,0,1-3.152.079,1.789,1.789,0,0,1,.079-2.758" transform="translate(4.259 4.384)"/><path class="c" d="M16.678,38.855l14.5-12.531a2.5,2.5,0,0,1,3.152-.079A1.79,1.79,0,0,1,34.253,29l-14.5,12.531a2.5,2.5,0,0,1-3.152.079,1.74,1.74,0,0,1,.079-2.758" transform="translate(3.813 6.117)"/><path class="c" d="M5.095,20.344,19.6,7.813a2.5,2.5,0,0,1,3.152-.079,1.79,1.79,0,0,1-.079,2.758L8.169,22.945a2.5,2.5,0,0,1-3.152.079,1.707,1.707,0,0,1,.079-2.68" transform="translate(1.052 1.694)"/><path class="c" d="M3.69,27.087l14.5-12.531a2.5,2.5,0,0,1,3.152-.079,1.79,1.79,0,0,1-.079,2.758L6.763,29.766a2.5,2.5,0,0,1-3.152.079,1.843,1.843,0,0,1,.079-2.758" transform="translate(0.724 3.305)"/><path class="c" d="M11.838,25.942l14.5-12.531a2.5,2.5,0,0,1,3.152-.079,1.79,1.79,0,0,1-.079,2.758l-14.5,12.531a2.5,2.5,0,0,1-3.152.079,1.79,1.79,0,0,1,.079-2.758" transform="translate(2.663 3.032)"/><path class="c" d="M19.853,24.733,34.354,12.2a2.5,2.5,0,0,1,3.152-.079,1.79,1.79,0,0,1-.079,2.758l-14.5,12.531a2.5,2.5,0,0,1-3.152.079,1.79,1.79,0,0,1,.079-2.758" transform="translate(4.579 2.743)"/><rect class="d" width="3.152" height="41.376" transform="translate(49.808 3.439)"/><path class="c" d="M82.518,5.725,80.942,9.666l-20.648.158c-4.177,1.025-3.7,6.857,0,7.8,3.941,2.758,9.3,3.152,11.585,6.147,5.438,6.935,1.813,14.186-5.517,16l-17.89.236,1.655-4.413,12.689-.158c6.462-.079,9.378-7.723,1.891-10.482a25.2,25.2,0,0,1-9.378-4.177C49.024,15.892,51.073,5.8,61.4,5.8Z" transform="translate(11.582 1.339)"/><path class="c" d="M82.477,5.6h7.014l8.354,17.417-2.68,6.068L86.5,10.957,74.99,39.8H68.764Z" transform="translate(16.43 1.308)"/><path class="c" d="M87.975,39.677l13.95-33.889h7.014l8.118,18.048-2.364,5.99-9.221-18.678L93.57,39.993Z" transform="translate(21.021 1.354)"/><path class="c" d="M107.249,39.914,121.356,5.789h6.62l14.265,34.046h-5.6L124.824,10.517,112.845,39.835Z" transform="translate(25.626 1.354)"/><path class="c" d="M126.46,5.663l1.813,4.019h22.7c12.373-.63,12.373,11.428,0,10.639l-11.27-.079.079,19.545h5.832V24.42h2.916l15.368,15.368h7.566L156.092,24.5C168.7,22.45,170.357,5.19,152.546,5.663H126.46Z" transform="translate(30.216 1.322)"/><path class="c" d="M157.581,5.6h29.554V9.854H175.156V39.959h-5.517V9.932H157.5Z" transform="translate(37.633 1.308)"/><path class="d" d="M229.1,56.171a1.328,1.328,0,0,0,1.34-1.5,1.348,1.348,0,1,0-1.34,1.5m-9.694-10.245a4.187,4.187,0,0,1,1.1-.079c2.128,0,3.389,1.34,3.389,4.019,0,3.152-1.419,4.492-3.625,4.413a2.955,2.955,0,0,1-.867-.079V45.926Zm-2.285,10.009a20.736,20.736,0,0,0,2.6.158,7.288,7.288,0,0,0,4.807-1.419c.946-.788,1.813-2.286,1.813-4.807a5.492,5.492,0,0,0-1.813-4.571,6.763,6.763,0,0,0-4.335-1.261,17.408,17.408,0,0,0-3.074.236Zm-1.34-11.822h-8.117v1.97h2.916v9.851h2.286V46.083h2.916v-1.97Zm-8.354,9.93h-4.256v-9.93h-2.286V55.935h6.541ZM194.5,56.171a1.328,1.328,0,0,0,1.34-1.5,1.348,1.348,0,1,0-2.68,0A1.328,1.328,0,0,0,194.5,56.171Zm-2.286-12.058H184.1v1.97h2.916v9.851H189.3V46.083h2.916v-1.97Zm-10.876,0L180,49.393c-.394,1.419-.709,2.837-1.025,4.256H178.9c-.236-1.419-.631-2.837-.946-4.256l-1.261-5.28h-2.522l3.468,11.822h2.6l3.625-11.822Zm-13.083,1.813a3.556,3.556,0,0,1,1.025-.079c1.261,0,2.049.63,2.049,1.891a2.016,2.016,0,0,1-2.286,2.049,2.43,2.43,0,0,1-.788-.079V45.926Zm-2.286,10.088h2.286V51.6a2.7,2.7,0,0,0,.867.079c1.734,0,4.492-.709,4.492-3.941a3.5,3.5,0,0,0-1.1-2.68,5.262,5.262,0,0,0-3.389-.946,15.106,15.106,0,0,0-3.074.236V56.014h-.079Zm-5.517-11.506a5.2,5.2,0,0,0-2.522-.552c-2.522,0-4.1,1.5-4.1,3.468,0,1.576,1.1,2.68,2.916,3.389,1.34.552,1.891,1.1,1.891,1.891,0,.867-.63,1.5-1.891,1.5a5.645,5.645,0,0,1-2.522-.63l-.473,1.891a6.68,6.68,0,0,0,2.916.63c2.758,0,4.335-1.5,4.335-3.546,0-1.576-.867-2.68-2.758-3.468-1.419-.63-2.049-1.025-2.049-1.891,0-.63.552-1.34,1.734-1.34a5.67,5.67,0,0,1,2.128.473Zm-8.039,9.536h-4.335v-3.31h3.862V48.842h-3.862V46h4.1V44.113H145.8V55.935h6.62V54.043Zm-11.191,1.97h2.286V44.192h-2.286Zm-7.251-6.541V45.847A3.273,3.273,0,0,1,135,45.768a1.721,1.721,0,0,1,1.97,1.813,1.866,1.866,0,0,1-2.049,1.891Zm3.31.867a3.114,3.114,0,0,0,2.049-2.916c0-3.152-2.995-3.389-4.492-3.389a16.8,16.8,0,0,0-3.074.236V55.935h2.286V51.206h.788c1.1,0,1.576.473,1.891,1.97a27.757,27.757,0,0,0,.709,2.837h2.364a24.223,24.223,0,0,1-.867-3.231,3.673,3.673,0,0,0-1.655-2.443Zm-12.216-4.492c1.734,0,2.522,2.049,2.522,4.177,0,2.364-.867,4.256-2.6,4.256-1.655,0-2.6-1.891-2.6-4.256C122.472,47.9,123.26,45.847,125.073,45.847Zm0-1.891c-3.074,0-5.044,2.6-5.044,6.147,0,3.468,1.734,6.068,4.886,6.068,2.916,0,5.044-2.128,5.044-6.226C130.038,46.714,128.383,43.956,125.073,43.956Zm-5.753.158H111.2v1.97h2.916v9.851H116.4V46.083h2.916v-1.97Zm-14.344,7.014.709-2.68c.158-.709.394-1.655.552-2.443h.079c.158.709.394,1.655.552,2.443l.709,2.68Zm2.758-7.014H104.9l-3.389,11.822h2.286l.788-3.152h3.152l.867,3.152h2.364ZM95.2,49.472V45.847a3.273,3.273,0,0,1,1.025-.079,1.721,1.721,0,0,1,1.97,1.813,1.866,1.866,0,0,1-2.049,1.891Zm3.231.867a3.114,3.114,0,0,0,2.049-2.916c0-3.152-2.995-3.389-4.492-3.389a16.8,16.8,0,0,0-3.074.236V55.935H95.2V51.206h.788c1.1,0,1.576.473,1.891,1.97a27.754,27.754,0,0,0,.709,2.837h2.364a24.221,24.221,0,0,1-.867-3.231,3.226,3.226,0,0,0-1.655-2.443ZM86.219,45.847c1.734,0,2.522,2.049,2.522,4.177,0,2.364-.867,4.256-2.6,4.256-1.655,0-2.6-1.891-2.6-4.256C83.618,47.9,84.406,45.847,86.219,45.847Zm.079-1.891c-3.074,0-5.044,2.6-5.044,6.147,0,3.468,1.734,6.068,4.886,6.068,2.916,0,5.044-2.128,5.044-6.226C91.184,46.714,89.529,43.956,86.3,43.956Zm-11.822,6.7h.867c1.182,0,2.364.473,2.364,1.891,0,1.34-1.025,1.891-2.286,1.891a3.248,3.248,0,0,1-.946-.079Zm0-1.734V45.768a3.273,3.273,0,0,1,1.025-.079c1.025,0,1.891.394,1.891,1.576,0,.946-.788,1.655-2.049,1.655Zm3.231.63A2.712,2.712,0,0,0,79.6,47.029a2.62,2.62,0,0,0-1.182-2.207,5.448,5.448,0,0,0-3.231-.788,14.768,14.768,0,0,0-2.995.236V55.935a18.354,18.354,0,0,0,2.522.158c2.128,0,3.468-.394,4.256-1.1a3.232,3.232,0,0,0,1.1-2.443,3.292,3.292,0,0,0-2.364-2.995ZM64.546,51.127l.709-2.68c.158-.709.394-1.655.552-2.443h.079c.158.709.394,1.655.552,2.443l.709,2.68ZM67.3,44.113H64.467L61.078,55.935h2.286l.788-3.152H67.3l.867,3.152h2.364Zm-6.857,9.93H56.192v-9.93H53.907V55.935h6.541Zm-11.191-9.93H41.139v1.97h2.916v9.851h2.286V46.083h2.916v-1.97ZM34.834,49.472V45.847a3.273,3.273,0,0,1,1.025-.079,1.721,1.721,0,0,1,1.97,1.813,1.866,1.866,0,0,1-2.049,1.891Zm3.31.867a3.114,3.114,0,0,0,2.049-2.916c0-3.152-2.995-3.389-4.492-3.389a16.8,16.8,0,0,0-3.074.236V55.935h2.207V51.206h.788c1.1,0,1.576.473,1.891,1.97a27.759,27.759,0,0,0,.709,2.837h2.364a24.22,24.22,0,0,1-.867-3.231,3.368,3.368,0,0,0-1.576-2.443Zm-13.161.788.709-2.68c.158-.709.394-1.655.552-2.443h.079c.158.709.394,1.655.552,2.443l.709,2.68Zm2.758-7.014H24.9L21.515,55.935H23.8l.788-3.152h3.152l.867,3.152h2.364Zm-8.039,0H16.865l-1.34,4.492c-.394,1.419-.788,2.837-1.025,4.177h-.079c-.236-1.34-.63-2.758-1.025-4.177l-1.261-4.492H9.3L8.512,55.935h2.049l.236-4.571c.079-1.5.158-3.231.158-4.729h.079c.315,1.419.63,3.074,1.025,4.413l1.34,4.729h1.734L16.55,50.97c.394-1.34.867-2.916,1.182-4.335h.079c0,1.5.079,3.074.158,4.65l.236,4.571h2.207Zm-13,.394a5.2,5.2,0,0,0-2.522-.552c-2.522,0-4.1,1.5-4.1,3.468,0,1.576,1.1,2.68,2.916,3.389,1.34.552,1.891,1.1,1.891,1.891,0,.867-.63,1.5-1.891,1.5a5.645,5.645,0,0,1-2.522-.63L0,55.462a6.68,6.68,0,0,0,2.916.631c2.758,0,4.335-1.5,4.335-3.546,0-1.576-.867-2.68-2.758-3.468-1.419-.63-2.049-1.025-2.049-1.891,0-.63.552-1.34,1.734-1.34A5.67,5.67,0,0,1,6.3,46.32Z" transform="translate(0 10.474)"/></g></g></svg>