<svg xmlns="http://www.w3.org/2000/svg" xmlns:xlink="http://www.w3.org/1999/xlink" width="15" height="15" viewBox="0 0 15 15">
  <defs>
    <clipPath id="clip-path">
      <rect id="Rectangle_1542" data-name="Rectangle 1542" width="15" height="15" transform="translate(18 110)" fill="#3a3a3a" stroke="#707070" stroke-width="1"/>
    </clipPath>
  </defs>
  <g id="Mask_Group_58" data-name="Mask Group 58" transform="translate(-18 -110)" clip-path="url(#clip-path)">
    <g id="process_1_" data-name="process (1)" transform="translate(18 110)">
      <path id="Path_1245" data-name="Path 1245" d="M8.5,15H6.5a.587.587,0,0,1-.586-.586v-.875a6.189,6.189,0,0,1-1.569-.651l-.619.619a.587.587,0,0,1-.829,0L1.492,12.1a.587.587,0,0,1,0-.829l.619-.619a6.189,6.189,0,0,1-.651-1.569H.586A.587.587,0,0,1,0,8.5V6.5a.587.587,0,0,1,.586-.586h.873a6.189,6.189,0,0,1,.65-1.572L1.492,3.73a.587.587,0,0,1,0-.829L2.9,1.492a.587.587,0,0,1,.829,0l.614.614a6.189,6.189,0,0,1,1.574-.653V.586A.587.587,0,0,1,6.5,0H8.5a.587.587,0,0,1,.586.586v.865a6.192,6.192,0,0,1,1.577.653l.612-.612a.587.587,0,0,1,.829,0L13.508,2.9a.587.587,0,0,1,0,.829l-.612.612a6.192,6.192,0,0,1,.653,1.577h.865A.587.587,0,0,1,15,6.5V8.5a.587.587,0,0,1-.586.586h-.867a6.193,6.193,0,0,1-.653,1.574l.614.614a.587.587,0,0,1,0,.829L12.1,13.508a.587.587,0,0,1-.829,0l-.616-.616a6.193,6.193,0,0,1-1.572.65v.873A.587.587,0,0,1,8.5,15ZM4.3,12.225a.293.293,0,0,1,.158.046,5.61,5.61,0,0,0,1.812.751.293.293,0,0,1,.23.286v1.105H8.5v-1.1a.293.293,0,0,1,.23-.286,5.614,5.614,0,0,0,1.815-.75.293.293,0,0,1,.365.04l.779.779,1.409-1.409-.778-.778a.293.293,0,0,1-.04-.365,5.613,5.613,0,0,0,.754-1.816.293.293,0,0,1,.286-.23h1.1V6.5h-1.1a.293.293,0,0,1-.286-.23,5.61,5.61,0,0,0-.753-1.819.293.293,0,0,1,.04-.365l.775-.775L11.685,1.907l-.775.775a.293.293,0,0,1-.365.04,5.613,5.613,0,0,0-1.819-.753.293.293,0,0,1-.23-.286V.586H6.5v1.1a.293.293,0,0,1-.23.286,5.613,5.613,0,0,0-1.816.754.293.293,0,0,1-.365-.04l-.778-.778L1.907,3.315l.779.779a.293.293,0,0,1,.04.364,5.614,5.614,0,0,0-.75,1.815.293.293,0,0,1-.286.23H.586V8.5H1.691a.293.293,0,0,1,.286.23,5.611,5.611,0,0,0,.751,1.812.293.293,0,0,1-.04.365l-.782.782,1.409,1.409.782-.782a.293.293,0,0,1,.207-.086Zm0,0" fill="#3a3a3a" stroke="#3a3a3a" stroke-width="0.3"/>
      <path id="Path_1246" data-name="Path 1246" d="M7.5,11.775A4.277,4.277,0,1,1,9.591,3.767a.293.293,0,1,1-.287.511A3.691,3.691,0,1,0,10.8,5.85a.293.293,0,1,1,.524-.262A4.276,4.276,0,0,1,7.5,11.775Zm0,0" fill="#3a3a3a" stroke="#3a3a3a" stroke-width="0.3"/>
      <path id="Path_1247" data-name="Path 1247" d="M10.381,5.039a.293.293,0,1,1,.207-.086A.295.295,0,0,1,10.381,5.039Zm0,0" fill="#3a3a3a" stroke="#3a3a3a" stroke-width="0.3"/>
      <path id="Path_1248" data-name="Path 1248" d="M7.087,9.658a.293.293,0,0,1-.207-.086L5.027,7.72a.293.293,0,0,1,0-.414L6.078,6.254a.293.293,0,0,1,.414,0l.595.595L8.508,5.428a.293.293,0,0,1,.414,0L9.973,6.479a.293.293,0,0,1,0,.414l-2.68,2.68a.293.293,0,0,1-.207.086ZM5.648,7.512,7.087,8.951,9.352,6.686l-.637-.637L7.294,7.471a.293.293,0,0,1-.414,0l-.595-.595Zm0,0" fill="#3a3a3a" stroke="#3a3a3a" stroke-width="0.3"/>
    </g>
  </g>
</svg>
