<svg xmlns="http://www.w3.org/2000/svg" xmlns:xlink="http://www.w3.org/1999/xlink" width="15" height="15" viewBox="0 0 15 15"><defs><style>.a,.c{fill:#222;}.a{stroke:#707070;}.b{clip-path:url(#a);}</style><clipPath id="a"><rect class="a" width="15" height="15" transform="translate(18.672 110.672)"/></clipPath></defs><g class="b" transform="translate(-18.672 -110.672)"><g transform="translate(19 112.709)"><g transform="translate(0 0)"><path class="c" d="M13.083,1.549H1.261A1.263,1.263,0,0,0,0,2.81v8.4a1.263,1.263,0,0,0,1.261,1.261H13.083a1.263,1.263,0,0,0,1.261-1.261V2.81A1.263,1.263,0,0,0,13.083,1.549Zm-.174.84L7.2,8.1,1.439,2.389ZM.84,11.04V2.98L4.888,6.993Zm.594.594,4.05-4.05L6.9,8.991a.42.42,0,0,0,.593,0L8.881,7.606l4.028,4.028ZM13.5,11.04,9.475,7.012,13.5,2.984Z" transform="translate(0 -1.549)"/></g></g></g></svg>