<svg xmlns="http://www.w3.org/2000/svg" xmlns:xlink="http://www.w3.org/1999/xlink" width="39" height="38" viewBox="0 0 39 38"><defs><style>.a,.c{fill:#009dff;}.a{stroke:#707070;}.b{clip-path:url(#a);}</style><clipPath id="a"><rect class="a" width="39" height="38" transform="translate(23 23)"/></clipPath></defs><g class="b" transform="translate(-23 -23)"><g transform="translate(23.5 23)"><path class="c" d="M36.1,0H1.9A1.8,1.8,0,0,0,0,1.9V28.5a1.8,1.8,0,0,0,1.9,1.9H13.3v3.8H7.6V38H30.4V34.2H24.7V30.4H36.1A1.8,1.8,0,0,0,38,28.5V1.9A1.8,1.8,0,0,0,36.1,0ZM34.2,26.6H3.8V3.8H34.2Z"/><rect class="c" width="3.8" height="5.7" transform="translate(9.5 17.1)"/><rect class="c" width="3.8" height="9.5" transform="translate(17.1 13.3)"/><rect class="c" width="3.8" height="15.2" transform="translate(24.7 7.6)"/></g></g></svg>