<svg xmlns="http://www.w3.org/2000/svg" xmlns:xlink="http://www.w3.org/1999/xlink" width="39" height="38" viewBox="0 0 39 38"><defs><style>.a,.c{fill:#ed3237;}.a{stroke:#707070;}.b{clip-path:url(#a);}</style><clipPath id="a"><rect class="a" width="39" height="38" transform="translate(23 23)"/></clipPath></defs><g class="b" transform="translate(-23 -23)"><path class="c" d="M34.334,15.669h-.267v-1.2A14.477,14.477,0,0,0,19.573.038H19.5A14.477,14.477,0,0,0,5.007,14.465v1.2H4.666A4.663,4.663,0,0,0,0,20.318v4.769a4.663,4.663,0,0,0,4.666,4.648h.908a5.4,5.4,0,0,0,5.27,4.23h3.047a3.158,3.158,0,0,0,2.939,2.011h2.437a3.154,3.154,0,0,0,0-6.308H16.831a3.159,3.159,0,0,0-2.939,2.011H10.845a3.114,3.114,0,0,1-2.888-1.945h.514a1.143,1.143,0,0,0,1.143-1.143V16.812a1.143,1.143,0,0,0-1.143-1.143H7.292v-1.2A12.189,12.189,0,0,1,19.5,2.323h.072A12.189,12.189,0,0,1,31.782,14.465v1.2H30.528a1.142,1.142,0,0,0-1.143,1.143V28.592a1.142,1.142,0,0,0,1.143,1.143h3.806A4.663,4.663,0,0,0,39,25.087V20.318a4.663,4.663,0,0,0-4.666-4.649Zm0,0" transform="translate(23 23.993)"/></g></svg>