<svg xmlns="http://www.w3.org/2000/svg" xmlns:xlink="http://www.w3.org/1999/xlink" width="39" height="38" viewBox="0 0 39 38"><defs><style>.a,.c,.d{fill:#ef8632;}.a{stroke:#707070;}.b{clip-path:url(#a);}.d{font-size:13px;font-family:SegoeUI-Semibold, Segoe UI;font-weight:600;}</style><clipPath id="a"><rect class="a" width="39" height="38" transform="translate(23 23)"/></clipPath></defs><g class="b" transform="translate(-23 -23)"><g transform="translate(23 22.5)"><path class="c" d="M28.687,2.474A10.313,10.313,0,1,0,39,12.787,10.313,10.313,0,0,0,28.687,2.474Zm0,18.236a7.923,7.923,0,1,1,7.922-7.923A7.923,7.923,0,0,1,28.687,20.71Z"/><text class="d" transform="translate(32 17.5)"><tspan x="-7.217" y="0">₹</tspan></text><path class="c" d="M36.9,28.1a26.239,26.239,0,0,1-8.217,2.8c-2.676.42-7.711-.592-7.711-1.788,0-.453,4.416,1.116,7.087.4,2.048-.546,1.757-2.462.643-2.715s-7.6-2.629-10.368-2.711a47.926,47.926,0,0,0-6.089.708c-.534.087-.869.077-.9.589-.155,2.377-.461,7.236-.628,9.775,0,.054.071.775.666.267a3.09,3.09,0,0,1,2.41-.98c1.326.3,12.8,2.4,14.38,2.035,2.264-.526,8.672-4.324,9.9-5.5C39.98,29.149,38.5,27.217,36.9,28.1Z"/><path class="c" d="M8.181,24.7l-6.01-.3a1.082,1.082,0,0,0-1.053.777L.026,35.106a.655.655,0,0,0,.635.851H7.32a.887.887,0,0,0,.909-.81l.731-9.559A.82.82,0,0,0,8.181,24.7ZM4.643,34.641A1.662,1.662,0,1,1,6.3,32.98,1.662,1.662,0,0,1,4.643,34.641Z"/></g></g></svg>