<svg xmlns="http://www.w3.org/2000/svg" width="18.616" height="21.505" viewBox="0 0 18.616 21.505"><defs><style>.a{opacity:0.4;}</style></defs><g class="a"><ellipse cx="0.831" cy="0.84" rx="0.831" ry="0.84" transform="translate(13.214 13.213)"/><path d="M21.928,15.2a.836.836,0,0,0,.831-.84V11.256A3.346,3.346,0,0,0,19.435,7.9h-1V4.934a4.987,4.987,0,0,0-9.973,0V7.9h-1a3.346,3.346,0,0,0-3.324,3.36v6.888A3.346,3.346,0,0,0,7.467,21.5H19.435a3.346,3.346,0,0,0,3.324-3.36.831.831,0,1,0-1.662,0,1.673,1.673,0,0,1-1.662,1.68H7.467a1.673,1.673,0,0,1-1.662-1.68V11.256a1.673,1.673,0,0,1,1.662-1.68H19.435a1.673,1.673,0,0,1,1.662,1.68v3.108A.836.836,0,0,0,21.928,15.2ZM16.774,7.9H10.125V4.934a3.325,3.325,0,0,1,6.649,0Z" transform="translate(-4.143)"/><ellipse cx="0.831" cy="0.84" rx="0.831" ry="0.84" transform="translate(6.939 13.213)"/><ellipse cx="0.831" cy="0.84" rx="0.831" ry="0.84" transform="translate(3.823 13.213)"/><ellipse cx="0.831" cy="0.84" rx="0.831" ry="0.84" transform="translate(10.056 13.213)"/></g></svg>