<?xml version="1.0" encoding="utf-8"?>
<!-- Generator: Adobe Illustrator 24.1.1, SVG Export Plug-In . SVG Version: 6.00 Build 0)  -->
<svg version="1.1" id="Layer_1" xmlns="http://www.w3.org/2000/svg" xmlns:xlink="http://www.w3.org/1999/xlink" x="0px" y="0px"
	 viewBox="0 0 512 365" style="enable-background:new 0 0 512 365;" xml:space="preserve">
<style type="text/css">
	.st0{fill:#C1CAD5;}
	.st1{fill:#5F7D95;}
</style>
<g>
	<circle class="st0" cx="184" cy="86" r="32"/>
	<path class="st0" d="M496,310v32c0,4.4-3.6,8-8,8H24c-4.4,0-8-3.6-8-8v-16l168-168l48,48l80-80L496,310z"/>
	<circle class="st0" cx="184" cy="86" r="32"/>
	<path class="st0" d="M368,350H16v-24l168-168L368,350z"/>
	<g>
		<path class="st1" d="M488,6H24C15.2,6,8,13.2,8,22v320c0,8.8,7.2,16,16,16h464c8.8,0,16-7.2,16-16V22C504,13.2,496.8,6,488,6z
			 M488,22v268.7L317.7,120.3c-3.1-3.1-8.2-3.1-11.3,0L232,194.7l-42.3-42.3c-3.1-3.1-8.2-3.1-11.3,0L24,306.7V22L488,22z M24,342
			v-12.7l160-160l90.3,90.3c3.2,3.1,8.2,3,11.3-0.2c3-3.1,3-8,0-11.1L243.3,206l68.7-68.7l176,176V342H24z"/>
		<path class="st1" d="M301.7,264.3c-3.2-3.1-8.2-3-11.3,0.2c-3,3.1-3,8,0,11.1l8,8c3.2,3.1,8.2,3,11.3-0.2c3-3.1,3-8,0-11.1
			L301.7,264.3z"/>
		<path class="st1" d="M184,126c22.1,0,40-17.9,40-40s-17.9-40-40-40s-40,17.9-40,40C144,108.1,161.9,126,184,126z M184,62
			c13.3,0,24,10.7,24,24s-10.7,24-24,24s-24-10.7-24-24S170.7,62,184,62z"/>
		<path class="st1" d="M360,54h8c4.4,0,8-3.6,8-8s-3.6-8-8-8h-8c-4.4,0-8,3.6-8,8S355.6,54,360,54z"/>
		<path class="st1" d="M392,54h72c4.4,0,8-3.6,8-8s-3.6-8-8-8h-72c-4.4,0-8,3.6-8,8S387.6,54,392,54z"/>
	</g>
</g>
</svg>
