<?xml version="1.0" encoding="utf-8"?>
<!-- Generator: Adobe Illustrator 24.1.2, SVG Export Plug-In . SVG Version: 6.00 Build 0)  -->
<svg version="1.1" id="Layer_1" xmlns="http://www.w3.org/2000/svg" xmlns:xlink="http://www.w3.org/1999/xlink" x="0px" y="0px"
	 viewBox="0 0 512 512" style="enable-background:new 0 0 512 512;" xml:space="preserve">
<style type="text/css">
	.st0{fill:#FF5A5A;}
</style>
<g id="Place_holder">
	<path class="st0" d="M256,16C167.7,16,96,87.6,96,175.9c0,0,0,0.1,0,0.1c0,88.4,160,320,160,320s160-231.6,160-320
		C416,87.7,344.4,16,256,16C256.1,16,256,16,256,16z M256,264c-48.6,0-88-39.4-88-88s39.4-88,88-88s88,39.4,88,88
		C344,224.6,304.7,264,256,264C256.1,264,256,264,256,264z"/>
</g>
</svg>
