<svg xmlns="http://www.w3.org/2000/svg" xmlns:xlink="http://www.w3.org/1999/xlink" width="15" height="15" viewBox="0 0 15 15"><defs><style>.a,.c{fill:#222;}.a{stroke:#707070;}.b{clip-path:url(#a);}</style><clipPath id="a"><rect class="a" width="15" height="15" transform="translate(19.295 111.295)"/></clipPath></defs><g class="b" transform="translate(-19.295 -111.295)"><g transform="translate(20.096 111)"><path class="c" d="M13.274,3.259,10.089.131A.457.457,0,0,0,9.769,0H1.717a1.706,1.706,0,0,0-1.7,1.7V13.885a1.706,1.706,0,0,0,1.7,1.7h9.989a1.706,1.706,0,0,0,1.7-1.7V3.585a.457.457,0,0,0-.137-.326ZM10.225,1.545l1.611,1.583H10.371a.145.145,0,0,1-.145-.145Zm1.481,13.13H1.717a.792.792,0,0,1-.791-.791V1.7A.792.792,0,0,1,1.717.913h7.6V2.983a1.06,1.06,0,0,0,1.059,1.059H12.5v9.844a.792.792,0,0,1-.791.791Zm0,0" transform="translate(-0.013 0)"/><path class="c" d="M9.388,6.043H2.95a.457.457,0,1,0,0,.913H9.388a.457.457,0,1,0,0-.913Zm0,0" transform="translate(0.481 1.204)"/><path class="c" d="M2.95,8.48H8.2a.457.457,0,0,0,0-.913H2.95a.457.457,0,1,0,0,.913Zm0,0" transform="translate(0.481 1.507)"/><path class="c" d="M8.833,9.09H2.95a.457.457,0,1,0,0,.913H8.833a.457.457,0,0,0,0-.913Zm0,0" transform="translate(0.481 1.811)"/></g></g></svg>