<svg xmlns="http://www.w3.org/2000/svg" xmlns:xlink="http://www.w3.org/1999/xlink" width="15" height="15" viewBox="0 0 15 15"><defs><style>.a,.c{fill:#222;}.a{stroke:#707070;}.b{clip-path:url(#a);}</style><clipPath id="a"><rect class="a" width="15" height="15" transform="translate(18.506 110.506)"/></clipPath></defs><g class="b" transform="translate(-18.506 -110.506)"><g transform="translate(19 111)"><path class="c" d="M13.931,4.123,11,.166a.411.411,0,0,0-.66,0L7.409,4.123a.411.411,0,0,0,.33.655H8.794V6.762A1.5,1.5,0,0,0,8.105,6.6H7.372a1.511,1.511,0,0,0-1.51,1.51v.856a1.5,1.5,0,0,0-.689-.167H4.441a1.511,1.511,0,0,0-1.51,1.51v.856a1.5,1.5,0,0,0-.689-.167H1.51A1.511,1.511,0,0,0,0,12.5v1.1a.41.41,0,0,0,.41.41H12.135a.41.41,0,0,0,.41-.41V4.778H13.6a.411.411,0,0,0,.33-.655ZM.821,12.5a.69.69,0,0,1,.689-.689h.733a.69.69,0,0,1,.689.689v.689H.821Zm2.931,0V10.3a.689.689,0,0,1,.689-.689h.733a.689.689,0,0,1,.689.689v2.887H3.752Zm2.931-2.2v-2.2a.689.689,0,0,1,.689-.689h.733a.69.69,0,0,1,.689.689v5.086H6.684Zm5.452-6.346a.41.41,0,0,0-.41.41v8.823H9.615V4.368a.411.411,0,0,0-.41-.41H8.554L10.67,1.1l2.116,2.857Zm0,0"/></g></g></svg>