<?xml version="1.0" encoding="utf-8"?>
<!-- Generator: Adobe Illustrator 24.1.2, SVG Export Plug-In . SVG Version: 6.00 Build 0)  -->
<svg version="1.1" id="Capa_1" xmlns="http://www.w3.org/2000/svg" xmlns:xlink="http://www.w3.org/1999/xlink"
	 viewBox="0 0 21 21" width="21" height="21">
<style type="text/css">
	.st0{fill:#009DFF;}
</style>
<g>
	<g>
		<g>
			<path class="st0" d="M18,0H3C1.6,0,0.3,1.2,0.3,2.7v12.2c0,1.5,1.2,2.7,2.7,2.7v2.7c0,0.3,0.2,0.5,0.4,0.6C3.5,21,3.6,21,3.7,21
				c0.2,0,0.3-0.1,0.4-0.2L8,17.6H18c1.5,0,2.7-1.2,2.7-2.7V2.7C20.7,1.2,19.4,0,18,0z M19.3,14.9c0,0.7-0.6,1.4-1.4,1.4H7.8
				c-0.2,0-0.3,0.1-0.4,0.2l-3,2.5v-1.9c0-0.4-0.3-0.7-0.7-0.7H3c-0.7,0-1.4-0.6-1.4-1.4V2.7C1.7,2,2.3,1.4,3,1.4H18
				c0.7,0,1.4,0.6,1.4,1.4V14.9z"/>
		</g>
	</g>
	<g>
		<g>
			<path class="st0" d="M5.1,8.1c-0.4,0-0.7-0.3-0.7-0.7s0.3-0.7,0.7-0.7h1.4c0.4,0,0.7-0.3,0.7-0.7c0-0.4-0.3-0.7-0.7-0.7H5.1
				c-1.1,0-2,0.9-2,2s0.9,2,2,2c0.4,0,0.7,0.3,0.7,0.7s-0.3,0.7-0.7,0.7H3.7c-0.4,0-0.7,0.3-0.7,0.7c0,0.4,0.3,0.7,0.7,0.7h1.4
				c1.1,0,2-0.9,2-2S6.2,8.1,5.1,8.1z"/>
		</g>
	</g>
	<g>
		<g>
			<path class="st0" d="M15.9,8.1c-0.4,0-0.7-0.3-0.7-0.7s0.3-0.7,0.7-0.7h1.4c0.4,0,0.7-0.3,0.7-0.7c0-0.4-0.3-0.7-0.7-0.7h-1.4
				c-1.1,0-2,0.9-2,2s0.9,2,2,2c0.4,0,0.7,0.3,0.7,0.7s-0.3,0.7-0.7,0.7h-1.4c-0.4,0-0.7,0.3-0.7,0.7c0,0.4,0.3,0.7,0.7,0.7h1.4
				c1.1,0,2-0.9,2-2S17,8.1,15.9,8.1z"/>
		</g>
	</g>
	<g>
		<g>
			<path class="st0" d="M12,5.4c-0.3-0.1-0.6,0.1-0.8,0.4l-0.7,1.5L9.8,5.8C9.6,5.5,9.3,5.4,9,5.4C8.7,5.5,8.5,5.8,8.5,6.1v5.4
				c0,0.4,0.3,0.7,0.7,0.7c0.4,0,0.7-0.3,0.7-0.7V9l0.1,0.1c0.2,0.5,1,0.5,1.2,0L11.2,9v2.5c0,0.4,0.3,0.7,0.7,0.7
				c0.4,0,0.7-0.3,0.7-0.7V6.1C12.5,5.8,12.3,5.5,12,5.4z"/>
		</g>
	</g>
</g>
</svg>
