<svg xmlns="http://www.w3.org/2000/svg" xmlns:xlink="http://www.w3.org/1999/xlink" width="20" height="20" viewBox="0 0 20 20">
  <defs>
    <clipPath id="clip-Survey">
      <rect width="20" height="20"/>
    </clipPath>
  </defs>
  <g id="Survey" clip-path="url(#clip-Survey)">
    <g id="survey-2" data-name="survey" transform="translate(0)">
      <path id="Path_14" data-name="Path 14" d="M18.32,5.625H13.058A6.563,6.563,0,1,0,1,10.042l-.962,2.6a.586.586,0,0,0,.753.753l2.741-1.013a6.566,6.566,0,0,0,3.032.741q.256,0,.508-.019v3.027a1.682,1.682,0,0,0,1.68,1.68h6.925l3.433,2.1a.586.586,0,0,0,.892-.5V7.3a1.682,1.682,0,0,0-1.68-1.68ZM3.871,11.234a.586.586,0,0,0-.5-.042l-1.8.665L2.2,10.17a.586.586,0,0,0-.068-.537,5.384,5.384,0,1,1,1.739,1.6Zm14.957,7.134-2.682-1.642a.586.586,0,0,0-.306-.086H8.75a.508.508,0,0,1-.508-.508V12.907a6.577,6.577,0,0,0,3.408-2.2l1.036,1.036-1.519,1.519a.586.586,0,1,0,.829.829l1.519-1.519,1.519,1.519a.586.586,0,1,0,.829-.829l-1.519-1.519,1.519-1.519a.586.586,0,0,0-.829-.829L13.516,10.91l-1.2-1.2a6.518,6.518,0,0,0,.8-2.915h5.2a.508.508,0,0,1,.508.508V18.368Z" fill="#fff"/>
      <path id="Path_15" data-name="Path 15" d="M110.163,111.672l-2.535,2.535-1.129-1.129a.586.586,0,0,0-.829.829l1.543,1.543a.586.586,0,0,0,.829,0l2.949-2.949a.586.586,0,1,0-.829-.829Z" transform="translate(-101.378 -107.145)" fill="#fff"/>
    </g>
  </g>
</svg>
