<svg xmlns="http://www.w3.org/2000/svg" xmlns:xlink="http://www.w3.org/1999/xlink" width="15" height="15" viewBox="0 0 15 15"><defs><style>.a,.c{fill:#222;}.a{stroke:#707070;}.b{clip-path:url(#a);}</style><clipPath id="a"><rect class="a" width="15" height="15"/></clipPath></defs><g class="b"><g transform="translate(-0.213 -0.214)"><g transform="translate(0 3.857)"><path class="c" d="M14.945,6.142a.482.482,0,0,0-.482.482v5.459l-3.857,1.543V8.553a.482.482,0,0,0-.964,0v5.072L5.785,12.082V4.444l2.234.894a.482.482,0,1,0,.358-.9L5.491,3.287h0l-.008,0a.478.478,0,0,0-.358,0l-.009,0h0L.3,5.213A.482.482,0,0,0,0,5.66v8.677a.482.482,0,0,0,.661.447L5.3,12.929l4.633,1.853h0l.009,0a.478.478,0,0,0,.358,0l.009,0h0l4.812-1.924a.485.485,0,0,0,.3-.448V6.624A.482.482,0,0,0,14.945,6.142ZM4.821,12.082.965,13.625V5.986L4.821,4.443Z" transform="translate(0 -3.25)"/></g><g transform="translate(10.606 1.928)"><path class="c" d="M10.384,1.625A1.446,1.446,0,1,0,11.83,3.071,1.448,1.448,0,0,0,10.384,1.625Zm0,1.928a.482.482,0,1,1,.482-.482A.482.482,0,0,1,10.384,3.553Z" transform="translate(-8.937 -1.625)"/></g><g transform="translate(8.677)"><path class="c" d="M10.687,0A3.378,3.378,0,0,0,7.312,3.375c0,1.732,2.707,4.8,3.016,5.143a.482.482,0,0,0,.717,0c.309-.344,3.016-3.411,3.016-5.143A3.378,3.378,0,0,0,10.687,0Zm0,7.46c-1.053-1.249-2.41-3.165-2.41-4.085a2.41,2.41,0,0,1,4.821,0C13.1,4.293,11.74,6.211,10.687,7.46Z" transform="translate(-7.312)"/></g></g></g></svg>