<svg xmlns="http://www.w3.org/2000/svg" xmlns:xlink="http://www.w3.org/1999/xlink" width="21" height="21" viewBox="0 0 21 21"><defs><style>.a,.c{fill:#229f47;}.a{stroke:#707070;}.b{clip-path:url(#a);}</style><clipPath id="a"><rect class="a" width="21" height="21"/></clipPath></defs><g class="b"><g transform="translate(0.388 0.306)"><path class="c" d="M9.759.012A10.116,10.116,0,0,0,1.242,14.7L.169,19.915a.394.394,0,0,0,.476.462l5.106-1.21A10.113,10.113,0,1,0,9.759.012Zm6.093,15.7A7.923,7.923,0,0,1,6.73,17.2l-.711-.354-3.131.742.659-3.2-.35-.686A7.925,7.925,0,0,1,4.655,4.513a7.918,7.918,0,1,1,11.2,11.2Z" transform="translate(-0.141 0)"/><path class="c" d="M18.756,16.058,16.8,15.5a.73.73,0,0,0-.722.19l-.479.488a.714.714,0,0,1-.776.164,10.456,10.456,0,0,1-3.373-2.975.714.714,0,0,1,.056-.791l.418-.541a.73.73,0,0,0,.09-.742l-.824-1.864a.73.73,0,0,0-1.141-.261,3.294,3.294,0,0,0-1.274,1.943c-.139,1.372.45,3.1,2.675,5.179,2.571,2.4,4.63,2.717,5.971,2.392a3.294,3.294,0,0,0,1.752-1.527A.73.73,0,0,0,18.756,16.058Z" transform="translate(-3.737 -3.754)"/></g></g></svg>